<?xml version="1.0" encoding="utf-8"?>
<!-- Generator: Adobe Illustrator 21.0.2, SVG Export Plug-In . SVG Version: 6.00 Build 0)  -->
<svg version="1.1" id="Слой_1" xmlns="http://www.w3.org/2000/svg" xmlns:xlink="http://www.w3.org/1999/xlink" x="0px" y="0px"
	 viewBox="0 0 391.3 401" style="enable-background:new 0 0 391.3 401;" xml:space="preserve">
<polygon style="fill-rule:evenodd;clip-rule:evenodd;fill:#F0ECE6;" points="84.3,353.9 84.3,356.2 84.4,356.6 84.6,357 84.9,357.3 
	85.5,358.2 85.4,358.3 85.3,358.3 85.6,358.2 87.1,360 88.1,361.2 89.4,362.7 92.8,360.9 96.8,359.4 105.6,357 124.6,352.7 
	129.1,351.3 133.2,349.8 137.1,347.9 140.3,345.7 141.7,344.4 143.1,343.1 144.1,341.6 145.1,340 145.7,338.3 146.3,336.4 
	146.6,334.4 146.7,332.2 146.4,334.3 145.9,336.2 145.3,337.9 144.4,339.4 143.5,340.9 142.3,342.2 141.1,343.4 139.7,344.4 
	138.1,345.3 136.5,346.2 132.9,347.4 129.1,348.4 124.7,349.3 106.6,351.6 97.8,353.1 93.7,354.2 89.9,355.6 89.1,341.6 88.9,334.8 
	89.1,331.6 89.5,328.4 90.1,325.3 91.1,322.3 92.2,319.4 93.8,316.7 95.8,314.1 98.2,311.7 101.1,309.4 104.4,307.3 101.2,308.8 
	98.4,310.4 96.1,312.3 93.9,314.3 92.1,316.4 90.6,318.7 89.3,321.1 88.3,323.6 87.4,326.2 86.8,328.9 85.8,334.6 84.9,347.1 "/>
<polygon style="fill-rule:evenodd;clip-rule:evenodd;fill:#F0ECE6;" points="67.1,268.5 66.9,268.5 63.9,269.1 60.8,270 57.9,271.2 
	55.4,272.4 53.1,274.1 51.1,275.9 49.2,277.9 47.5,280 46.1,282.3 44.7,284.7 42.3,290 38.1,301.8 35.4,309.2 35.3,309.7 
	35.2,310.1 35.2,310.9 35.3,311.3 35.4,311.7 35.8,312.7 35.7,312.8 35.6,312.8 35.9,312.8 38.4,318.1 42.2,317.3 46.4,316.9 
	55.5,316.8 75.1,317.6 79.7,317.4 84.1,317 88.2,316.2 92.1,315 93.7,314.1 95.3,313.2 96.7,312 98.1,310.7 99.2,309.2 100.2,307.6 
	101.1,305.7 101.6,303.6 100.8,305.6 99.9,307.3 98.8,308.8 97.6,310.1 96.3,311.2 94.9,312.1 93.4,312.9 91.7,313.6 90.1,314 
	88.2,314.4 84.4,314.8 80.3,314.7 76.1,314.4 57.9,311.8 49.1,311 44.8,311 40.8,311.4 43.6,297.6 45.3,291 46.3,287.9 47.5,285 
	48.9,282.1 50.6,279.4 52.5,277 54.7,274.8 57.3,272.8 60.2,271.1 63.6,269.6 "/>
<polygon style="fill-rule:evenodd;clip-rule:evenodd;fill:#F0ECE6;" points="53.6,269.4 57.6,269.4 59.5,269.3 61.3,268.9 
	63.1,268.3 64.7,267.4 66.3,266.4 67.8,265.2 69.2,263.7 70.5,262 69.1,263.6 67.6,264.8 66.1,265.9 64.6,266.8 62.9,267.4 
	61.3,267.8 59.6,268 57.8,268.1 56.1,268 54.2,267.7 50.5,266.8 46.7,265.4 42.7,263.7 26.5,255.3 18.4,251.6 14.4,250.2 
	10.5,249.2 17.7,237.1 21.4,231.4 23.4,228.9 25.5,226.4 27.8,224.3 30.2,222.4 32.8,220.7 35.7,219.3 38.8,218.3 42.1,217.6 
	45.8,217.3 49.8,217.4 46.2,217 43.1,216.8 39.9,216.9 37.1,217.4 34.4,218.1 31.8,219.1 29.5,220.4 27.2,221.8 25.1,223.4 
	22.9,225.4 19.1,229.6 11.2,239.3 6.1,245.4 5.9,245.8 5.7,246.2 5.5,246.4 5.4,246.9 5.3,247.3 5.3,247.8 5.4,248.8 5.2,248.8 
	5.4,248.9 6.1,254.7 9.9,255.2 13.9,256.2 22.6,259.2 40.7,266.4 45.2,267.8 49.5,268.9 "/>
<path style="fill:#F0ECE6;" d="M1.3,177.9L1.3,177.9h0.1H1.3L1.3,177.9z M37.2,160.3l-2.7,0.1l-2.6,0.7l-2.7,0.7l-2.6,1l-5.2,2.3
	l-11,6.1L3.5,175l-0.4,0.3l-0.4,0.3l-0.2,0.2l-0.3,0.3l-0.1,0.3l-0.2,0.5l-0.4,1H1.4l0.1,0.1l-0.6,2.2l-0.4,1.6L0,183.3v0.4l3.3,1.7
	l3.4,2.6l6.9,6l14.1,13.4l3.6,3l3.6,2.6l3.7,2.2l3.6,1.5l1.9,0.5l1.8,0.2l1.8,0.2l1.9-0.2l1.8-0.3l1.8-0.5l1.9-0.9l2-1.3l-2,1
	l-1.9,0.7l-1.8,0.5l-1.7,0.1h-1.8l-1.6-0.3l-1.7-0.4l-1.5-0.6l-1.8-0.7l-1.5-0.9l-3.2-2.4l-3-2.6l-3-3.1l-11.9-13.9l-6.1-6.5
	l-3.2-2.9l-3.3-2.2l11.2-8.5l5.6-3.8l2.8-1.7l2.9-1.4l2.9-1.2l3-0.9l3-0.6l3.2-0.2l3.2,0.2l3.4,0.6l3.5,1.2l3.6,1.5l-3-1.7l-3-1.4
	l-2.9-1l-2.8-0.7l-2.8-0.3H37.2z"/>
<polygon style="fill-rule:evenodd;clip-rule:evenodd;fill:#F0ECE6;" points="58.6,165.4 60.6,165.4 62.6,165.4 64.8,165 62.7,165.2 
	60.7,165.1 58.9,164.8 57.2,164.3 55.6,163.7 54.1,162.8 52.7,161.8 51.4,160.7 50.2,159.3 49.1,157.9 47.1,154.6 45.2,151 
	43.6,147 37.8,129.7 34.5,121.3 32.6,117.6 30.5,114.2 44.1,110.4 50.6,109 53.9,108.4 57.1,108.3 60.2,108.3 63.3,108.6 
	66.4,109.2 69.4,110.2 72.3,111.6 75.2,113.4 78.1,115.8 80.7,118.6 78.6,115.8 76.4,113.4 74.1,111.4 71.7,109.7 69.3,108.4 
	66.7,107.4 64.2,106.6 61.5,106.1 58.8,105.8 56.1,105.7 50.2,105.9 37.8,107.4 29.9,108.4 29.5,108.4 29.1,108.6 28.7,108.8 
	28.4,108.9 28.1,109.2 27.8,109.4 27.1,110.3 26.9,110.2 27.1,110.4 23.5,114.9 23.5,115.1 25.8,118 28.1,121.6 32.2,129.8 
	40.3,147.4 42.5,151.6 44.9,155.4 47.5,158.7 50.3,161.4 51.8,162.6 53.4,163.6 55.1,164.4 56.8,165 "/>
<polygon style="fill-rule:evenodd;clip-rule:evenodd;fill:#F0ECE6;" points="75.4,54.7 75.1,54.7 74.6,54.8 74.2,54.9 73.8,55.1 
	72.8,55.4 72.7,55.4 72.7,55.3 72.8,55.6 67.8,58.3 67.8,58.8 68.8,62.3 69.5,66.4 70.3,75.4 71.2,95 71.7,99.7 72.5,104 
	73.7,108.1 75.2,111.7 76.2,113.3 77.3,114.8 78.5,116.2 80.1,117.4 81.5,118.4 83.2,119.3 85.2,119.9 87.3,120.4 85.3,119.8 
	83.5,119 81.9,118 80.5,116.9 79.3,115.7 78.3,114.4 77.4,112.9 76.6,111.4 76.1,109.7 75.5,107.9 74.8,104.1 74.5,100.1 74.5,95.8 
	75.5,77.4 75.6,68.6 75.3,64.3 74.5,60.4 88.5,62 95.2,63.2 98.4,63.9 101.5,64.9 104.4,66.1 107.2,67.4 109.7,69.2 112.2,71.2 
	114.4,73.6 116.3,76.4 118.1,79.7 119.5,83.4 118.6,80 117.4,76.9 116.1,74.1 114.5,71.7 112.7,69.4 110.8,67.6 108.7,66 
	106.4,64.4 104.1,63.2 101.4,62.1 96.1,60.1 83.9,57 76.2,54.9 75.8,54.8 "/>
<polygon style="fill-rule:evenodd;clip-rule:evenodd;fill:#F0ECE6;" points="120.2,65.5 120.2,70.2 120.5,72.1 121.1,73.9 
	121.6,75.6 122.5,77.3 123.5,78.8 124.8,80.2 126.4,81.6 128.1,82.8 126.6,81.4 125.2,80.1 124.1,78.6 123.2,77.1 122.5,75.4 
	122.1,73.8 121.8,72.1 121.6,70.4 121.7,68.6 121.9,66.8 122.6,63 123.9,59.1 125.5,55.1 133.3,38.6 136.7,30.4 138.1,26.3 
	138.8,22.4 151.2,29.2 156.9,32.7 159.6,34.6 162.1,36.6 164.3,38.8 166.4,41.2 168.1,43.7 169.6,46.4 170.7,49.6 171.5,52.9 
	171.9,56.6 171.9,60.4 172.3,57 172.4,53.7 172.1,50.7 171.6,47.8 170.7,45.2 169.7,42.7 168.3,40.4 166.8,38.1 165.1,36 163.1,34 
	158.8,30.2 148.8,22.7 142.5,17.9 142.1,17.6 141.7,17.4 141.3,17.3 141.1,17.2 140.6,17.2 140.1,17.2 139.1,17.3 139.1,17.2 
	139.1,17.1 139.1,17.3 133.2,18.1 132.8,22 131.9,26.1 129.2,34.9 122.8,53.2 121.5,57.7 120.6,62.1 "/>
<path style="fill:#F0ECE6;" d="M206.7,4.7l0.1,0.2h0.1l0.2,0.2L206.9,5l-0.1-0.1l-0.1-0.1V4.7L206.7,4.7L206.7,4.7z M209.2,0
	l-1.4,0.9l-0.9,0.5l-0.5,0.4l-0.2,0.1V2h-0.1v0.1v0.1l-0.2,0.2l-0.3,0.8l-0.5,1.1l-1.9,3.1l-2.4,3.3l-5.7,6.7l-6.4,7l-6.1,7
	l-2.7,3.7l-2.3,3.7l-1.9,3.6l-1.3,3.6l-0.3,1.8l-0.2,1.2v3l0.2,1.2l0.3,1.8l0.7,1.8l1,1.8l1,1.7l-1-1.9l-0.7-1.7l-0.5-1.8l-0.2-1.7
	v-1.8l0.1-1.7l0.4-1.6l0.5-1.7l0.7-1.6l0.9-1.6l2.1-3.2l2.7-3.1l2.8-3.1l13.5-12.4l6.2-6.3l2.7-3.3l2.3-3.4l4.9,7.5l5.4,8.8l4.5,7.7
	l1.5,3l0.5,1l0.3,0.7l0.6,2.5l0.5,2.4l0.3,2.3v2.4l-0.2,2.4l-0.1,1.1l-0.2,1.2l-0.3,1.2l-0.2,1.2l-0.6,1.1l-0.4,1.2l0.5-1.2l0.6-1.1
	l0.5-1.2l0.4-1.2l0.3-1.1l0.3-1.2l0.4-2.4l0.2-2.5l-0.1-2.5l-0.1-2.5l-0.5-2.5l-0.3-0.9l-0.5-1.5l-1.7-4.3l-5.5-12l-3.1-6.3
	l-3.1-5.5l-1.3-2.3L211.6,2l-1.2-1.3l-0.6-0.5L209.5,0H209.2z"/>
<polygon style="fill-rule:evenodd;clip-rule:evenodd;fill:#F0ECE6;" points="274.4,19.1 274.2,19.1 271.4,21.6 267.9,23.9 
	259.9,28.4 242.5,37 238.4,39.4 234.8,41.9 231.5,44.6 228.9,47.4 227.8,49.1 226.8,50.7 226.1,52.4 225.6,54.1 225.3,56 
	225.2,57.9 225.4,60 225.8,62.1 225.6,60 225.6,58.1 225.8,56.2 226.2,54.4 226.8,52.9 227.7,51.4 228.6,50 229.7,48.6 231.1,47.4 
	232.4,46.2 235.6,44 239.2,42.1 243.1,40.3 260.2,33.9 268.4,30.3 272.1,28.3 275.4,26 279.6,39.4 281.3,46 281.9,49.2 282.3,52.4 
	282.4,55.4 282.2,58.7 281.7,61.7 280.8,64.8 279.5,67.8 277.8,70.7 275.5,73.6 272.7,76.4 275.5,74.2 277.8,71.9 279.7,69.4 
	281.3,67.1 282.6,64.6 283.5,62.1 284.2,59.4 284.6,56.8 284.8,54 284.8,51.3 284.4,45.4 282.3,33.2 281.2,25.3 281.1,24.8 
	280.9,24.4 280.8,24.1 280.6,23.8 280.3,23.4 280.1,23.2 279.1,22.4 279.3,22.3 279.1,22.4 "/>
<polygon style="fill-rule:evenodd;clip-rule:evenodd;fill:#F0ECE6;" points="337.1,69.8 337.1,69 336.9,68.6 336.8,68.2 336.6,67.8 
	336.1,66.9 336.1,66.8 336.2,66.8 336.3,66.8 336.1,66.8 334.8,64.9 333.9,63.4 332.9,61.9 329.2,63.1 325.1,64 316.1,65.1 
	296.6,66.7 292.1,67.3 287.6,68.3 283.6,69.4 280.1,71.2 278.5,72.3 277.1,73.4 275.7,74.7 274.6,76.2 273.6,77.8 272.8,79.4 
	272.2,81.4 271.9,83 271.9,83.3 272.4,81.6 273.1,79.8 274.1,78.2 275.1,76.7 276.2,75.4 277.5,74.4 278.9,73.4 280.5,72.6 
	282.1,71.9 283.9,71.4 287.6,70.4 291.7,70.1 296.1,69.9 314.2,70.3 323.2,70.1 327.4,69.6 331.3,68.8 330.2,82.8 329.3,89.4 
	328.6,92.7 327.8,95.8 326.7,98.7 325.4,101.6 323.8,104.2 321.8,106.7 319.5,109 316.8,111.1 313.6,112.9 310.1,114.4 313.3,113.4 
	316.4,112.2 319.1,110.7 321.4,109 323.5,107.2 325.3,105.2 326.9,103 328.3,100.7 329.5,98.3 330.6,95.7 332.3,90.2 335.1,78 
	336.9,70.3 "/>
<polygon style="fill-rule:evenodd;clip-rule:evenodd;fill:#F0ECE6;" points="314.4,117.6 314.4,117.7 315.6,116.1 317.1,114.8 
	318.4,113.6 319.9,112.6 321.5,111.9 323.1,111.4 324.8,111 326.5,110.8 328.3,110.8 330.1,111 333.9,111.6 337.8,112.7 
	341.9,114.1 358.7,121.4 367.1,124.4 371.1,125.6 375.1,126.3 368.7,138.9 365.4,144.8 363.6,147.4 361.7,150 359.6,152.4 
	357.3,154.4 354.8,156.3 352.1,157.9 349.1,159.2 345.7,160.1 342.1,160.6 338.1,160.7 341.7,161 344.9,160.9 348.1,160.6 
	350.8,159.9 353.4,159 355.9,157.8 358.2,156.4 360.3,154.8 362.4,153 364.3,151 368.1,146.4 375.1,136.3 379.7,129.8 379.9,129.4 
	380.1,129 380.3,128.6 380.3,128.3 380.4,127.8 380.3,127.4 380.2,126.3 380.4,126.3 380.2,126.3 379.1,120.4 375.3,120.2 
	371.1,119.6 362.3,117.2 343.7,111.3 339.2,110.3 334.8,109.4 330.6,109.2 326.7,109.4 324.8,109.8 323.1,110.3 321.3,111 
	319.7,111.9 318.2,113 316.8,114.4 315.5,116 "/>
<polygon style="fill-rule:evenodd;clip-rule:evenodd;fill:#E0D5BE;" points="110.2,311.1 108.3,312.2 106.8,313.2 105.6,314.3 
	104.7,315.3 104.3,315.8 104.1,316.4 103.6,317.4 103.3,318.6 103.1,319.8 102.9,325.6 102.7,327.3 102.4,329.2 102.1,331.3 
	101.3,333.4 94.2,347.1 96.7,332.6 97.8,324.8 98.4,321.4 98.8,319.8 99.3,318.4 100.1,317.1 100.8,315.9 101.8,314.8 103.1,313.8 
	104.4,312.9 106.1,312.2 108.1,311.6 "/>
<polygon style="fill-rule:evenodd;clip-rule:evenodd;fill:#E0D5BE;" points="93,347.5 93,347.6 96.8,346.4 100.4,345.6 103.8,345.1 
	107.1,344.8 118.2,344.3 120.7,343.8 123.1,343.1 125.3,342.1 126.4,341.4 127.5,340.6 129.7,338.4 131.9,335.9 134.1,332.4 
	136.1,328.4 133.4,331.3 130.9,333.6 128.6,335.4 126.4,336.6 124.2,337.4 122.1,338 119.8,338.4 117.6,338.7 112.8,339.2 
	110.2,339.7 107.3,340.4 104.2,341.4 100.8,342.9 97.1,345 "/>
<polygon style="fill-rule:evenodd;clip-rule:evenodd;fill:#E0D5BE;" points="46.9,307.5 46.9,307.6 57.2,295.8 58.5,293.6 
	59.5,291.4 60.4,289.4 61.1,287.6 62.8,281.2 63.3,279.9 63.9,278.7 64.6,277.6 65.1,277.1 65.5,276.6 66.1,276.1 66.7,275.7 
	68.1,274.9 69.8,274.3 72.1,273.7 69.6,273.6 67.5,273.9 65.6,274.3 64.1,275 62.5,275.8 61.3,276.9 60.2,278.1 59.2,279.4 
	58.3,281 57.5,282.6 56.1,286.1 53.2,293.9 "/>
<polygon style="fill-rule:evenodd;clip-rule:evenodd;fill:#E0D5BE;" points="48,306.4 48,306.4 52.1,306.2 55.9,306.3 59.3,306.6 
	62.3,307 67.5,308.1 69.8,308.6 72.1,308.9 74.2,309 76.3,308.7 77.4,308.4 78.5,308.2 80.8,307.1 83.4,305.6 86.1,303.4 
	89.1,300.7 92.5,297.2 88.9,299.3 85.7,300.9 83.1,302 80.4,302.7 78.1,303.1 76.1,303.3 73.9,303.3 71.9,303.1 67.6,302.8 
	65.2,302.8 62.5,302.9 59.5,303.2 56.1,303.9 52.3,304.9 "/>
<polygon style="fill-rule:evenodd;clip-rule:evenodd;fill:#E0D5BE;" points="46.2,222.4 44.4,222.4 42.8,222.8 41.2,223.4 
	39.8,224.2 38.4,225.2 37.1,226.3 35.8,227.6 33.3,230.4 27.9,236.8 17.4,247.8 31.1,240 33.1,238.3 34.7,236.7 36.2,235.1 
	37.4,233.4 41.2,228.1 42.1,227 43.1,226 44.1,225.2 44.7,224.9 45.3,224.4 46.1,224.3 46.7,224.1 48.3,223.8 50.2,223.8 
	52.3,223.9 50.1,223.1 48.1,222.6 "/>
<polygon style="fill-rule:evenodd;clip-rule:evenodd;fill:#E0D5BE;" points="47.6,258.4 48.7,258.4 50.1,258.3 52.7,257.7 
	55.9,256.7 59.7,255 63.9,252.9 59.7,253.7 56.2,254.1 53.3,254.2 50.8,254 48.7,253.6 46.8,252.9 45.1,252.2 43.5,251.3 
	40.1,249.3 37.9,248.4 35.5,247.6 32.6,246.9 29.2,246.3 25.2,246 20.4,245.9 24.4,247.1 27.8,248.4 30.8,250 33.4,251.4 
	41.5,256.7 43.4,257.4 45.4,258.1 46.4,258.3 "/>
<polygon style="fill-rule:evenodd;clip-rule:evenodd;fill:#E0D5BE;" points="45.9,167.8 44.3,167.8 42.6,168 41.1,168.3 39.3,168.9 
	37.7,169.6 34.3,171.3 26.9,175.3 13.1,181.4 28.7,179.4 31.1,178.6 33.3,177.7 35.2,176.7 37.1,175.7 42.5,172.1 43.8,171.4 
	45.1,170.9 46.3,170.4 46.9,170.4 47.6,170.4 48.3,170.4 49.1,170.4 50.6,170.8 52.4,171.4 54.4,172.4 52.6,170.8 50.9,169.6 
	49.2,168.7 47.6,168.1 "/>
<polygon style="fill-rule:evenodd;clip-rule:evenodd;fill:#E0D5BE;" points="15.7,181 15.7,181.1 18.9,183.6 21.6,186.2 23.9,188.7 
	25.8,191 28.8,195.2 30.2,197.1 31.6,198.8 33.1,200.3 34.8,201.6 35.8,202.2 36.8,202.6 39.1,203.4 42.1,203.9 45.4,204.1 
	49.5,204.1 54.3,203.6 50.2,202.8 46.8,201.9 44.1,200.9 41.7,199.8 39.8,198.6 38.2,197.3 36.7,195.9 35.4,194.4 32.6,191.4 
	30.9,189.7 28.9,188.1 26.4,186.3 23.5,184.6 19.9,182.8 "/>
<polygon style="fill-rule:evenodd;clip-rule:evenodd;fill:#E0D5BE;" points="78.1,125.1 76.7,123.4 75.3,122.2 73.9,121.3 
	73.3,120.9 72.6,120.6 72.1,120.4 71.3,120.3 70.1,120.1 68.7,120.1 67.3,120.3 60.8,121.6 58.8,121.9 56.6,122 54.3,122 
	51.7,121.9 36.5,117.9 51.6,117.4 59.9,116.4 63.7,116.2 65.5,116.1 67.3,116.3 68.9,116.4 70.5,117 72.1,117.6 73.4,118.4 
	74.7,119.7 76.1,121.1 77.1,123 "/>
<polygon style="fill-rule:evenodd;clip-rule:evenodd;fill:#E0D5BE;" points="66.4,153.9 61.8,152.4 58.1,151.1 54.9,149.6 
	52.5,148.1 50.6,146.4 49.9,145.7 49.2,144.8 48.1,143 47.4,141 46.7,138.9 46.2,136.7 45.1,131.6 44.1,128.7 43.1,125.6 
	41.4,122.2 39.4,118.6 42.7,121.8 45.4,124.9 47.4,127.6 49.1,130.1 50.2,132.4 51.1,134.4 52.5,138.4 53.1,140.2 53.9,142 
	54.9,143.8 56.2,145.7 57.9,147.6 60.1,149.4 62.9,151.6 "/>
<polygon style="fill-rule:evenodd;clip-rule:evenodd;fill:#E0D5BE;" points="78.8,66.1 78.8,66.2 91.4,75.4 93.7,76.4 95.9,77.4 
	98.1,78.1 99.9,78.6 106.4,79.9 107.8,80.2 109.1,80.7 110.2,81.3 110.8,81.7 111.3,82.1 111.8,82.6 112.3,83.2 113.1,84.6 
	114.1,86.3 114.7,88.3 114.6,86 114.2,83.9 113.6,82.1 112.8,80.4 111.8,79.1 110.7,77.9 109.3,76.9 107.9,76.1 106.3,75.3 
	104.6,74.7 101.1,73.4 93.1,71.3 "/>
<polygon style="fill-rule:evenodd;clip-rule:evenodd;fill:#E0D5BE;" points="80.2,91.6 80.2,93.7 80.5,95.8 80.7,96.8 81.1,97.9 
	82.3,100.1 83.9,102.4 86.2,104.9 89.2,107.6 93.1,110.7 90.6,107.3 88.8,104.3 87.5,101.6 86.6,99.2 86.1,97 85.9,95 85.8,93 
	85.9,91.1 86.1,87 86.1,84.7 85.8,82.1 85.3,79.2 84.4,75.9 83.1,72.1 81.2,67.8 81.7,72 81.9,75.7 81.8,79 81.5,82 80.7,87.2 
	80.3,89.4 "/>
<polygon style="fill-rule:evenodd;clip-rule:evenodd;fill:#E0D5BE;" points="165.6,63.4 165.7,61.2 165.6,59.3 165.2,57.7 165.1,57 
	164.7,56.3 164.4,55.7 164.1,55.2 163.2,54.2 162.2,53.2 161.1,52.4 155.5,48.8 153.9,47.6 152.2,46.2 150.5,44.6 148.8,42.7 
	140.6,29.3 151.8,39.4 158.4,44.4 161.4,47 162.7,48.2 163.9,49.4 164.9,50.8 165.7,52.2 166.4,53.8 166.7,55.4 166.9,57.1 
	166.7,59 166.3,61.1 "/>
<polygon style="fill-rule:evenodd;clip-rule:evenodd;fill:#E0D5BE;" points="130.8,58.3 130.8,59.4 131.1,61.9 131.7,64.8 133.1,68 
	134.7,71.7 137.1,76 136.1,71.9 135.5,68.4 135.3,65.4 135.4,62.8 135.7,60.6 136.2,58.4 136.9,56.6 137.6,54.7 139.3,50.7 
	140.1,48.4 140.8,45.9 141.4,42.9 141.7,39.4 141.9,35.4 141.8,30.9 140.7,34.9 139.5,38.4 138.2,41.6 136.8,44.3 134.2,49 
	133.1,51 132.1,53.1 131.4,55 130.9,57.1 "/>
<polygon style="fill-rule:evenodd;clip-rule:evenodd;fill:#E0D5BE;" points="219.1,56.3 220.1,54.2 220.6,52.4 220.9,50.9 
	220.9,50.1 220.9,49.4 220.9,48.7 220.7,48.1 220.4,46.8 219.8,45.6 219.1,44.4 215.2,39 214.2,37.3 213.1,35.4 212.2,33.2 
	211.3,30.8 208.7,15.3 215.3,28.9 219.5,36.1 221.3,39.4 222.1,41.1 222.7,42.7 223.2,44.4 223.4,46 223.4,47.6 223.2,49.3 
	222.7,51 221.8,52.7 220.7,54.4 "/>
<polygon style="fill-rule:evenodd;clip-rule:evenodd;fill:#E0D5BE;" points="187.2,44.8 187.2,49.7 187.4,52.4 187.9,57.3 
	188.5,53.2 189.3,49.7 190.2,46.8 191.3,44.4 192.4,42.3 193.7,40.4 195.1,38.8 196.4,37.3 199.4,34 201.1,32.1 202.6,29.9 
	204.2,27.4 205.8,24.3 207.5,20.7 209.1,16.3 206.5,19.8 204.1,22.7 201.7,25.1 199.5,27.2 195.4,30.7 193.5,32.2 191.9,33.7 
	190.4,35.4 189.3,37.2 188.3,39.4 187.6,41.9 "/>
<polygon style="fill-rule:evenodd;clip-rule:evenodd;fill:#E0D5BE;" points="274.7,62.9 274.7,61.1 274.6,59.3 274.2,55.4 
	273.1,47.3 271.9,32.2 268.5,47.6 268.4,50.1 268.5,52.4 268.8,54.6 269.1,56.6 270.6,63.1 270.8,64.4 270.9,65.8 270.8,67.1 
	270.7,67.8 270.5,68.4 270.2,69.1 269.9,69.7 269.1,71.1 267.8,72.6 266.3,74 266.3,74 268.4,72.9 270.1,71.8 271.5,70.4 
	272.7,69.1 273.5,67.7 274.1,66.1 274.5,64.6 "/>
<polygon style="fill-rule:evenodd;clip-rule:evenodd;fill:#E0D5BE;" points="237.1,63.4 238.2,58.7 239.5,54.8 240.9,51.6 
	242.4,49.1 243.9,47.1 244.7,46.3 245.6,45.4 247.3,44.4 249.3,43.4 251.3,42.7 253.6,42 258.6,40.4 261.5,39.4 264.6,38.1 
	267.9,36.4 271.5,34.2 268.4,37.6 265.5,40.4 262.9,42.6 260.4,44.3 258.1,45.7 256.1,46.7 252.1,48.4 250.3,49.3 248.5,50.2 
	246.7,51.3 244.9,52.7 243.1,54.6 241.1,56.9 239.1,59.8 "/>
<polygon style="fill-rule:evenodd;clip-rule:evenodd;fill:#E0D5BE;" points="304.9,109.9 304.9,109.9 307.5,109.7 309.7,109.2 
	310.7,108.8 311.7,108.4 312.5,108 313.3,107.4 314.1,106.9 314.6,106.3 315.2,105.6 315.7,104.9 316.6,103.3 317.3,101.6 
	317.9,99.7 318.4,97.8 319.1,93.6 319.9,89.3 320.9,85.1 323.8,77.7 318.6,84 316.7,86.9 315.2,89.6 314.2,92 313.5,94.3 
	313.1,96.3 312.7,98.1 312.4,101.3 312.3,102.7 312.1,103.9 311.9,104.4 311.7,105.1 311.4,105.6 311.1,106.1 310.6,106.7 
	310.1,107.1 309.5,107.6 308.8,108.1 307.1,109 "/>
<polygon style="fill-rule:evenodd;clip-rule:evenodd;fill:#E0D5BE;" points="281.7,89 284.4,85.2 287.1,82.2 289.5,79.9 292.1,78.2 
	293.2,77.4 294.4,77 296.8,76.3 299.2,75.9 301.7,75.9 312.9,76.9 316.1,77.1 319.6,77.1 323.3,76.9 327.3,76.3 322.8,78.3 
	318.8,79.7 315.2,80.7 312.1,81.3 309.1,81.6 306.4,81.7 301.5,81.4 299.3,81.4 297.1,81.4 294.9,81.7 292.6,82.3 290.2,83.2 
	287.6,84.4 284.8,86.4 "/>
<polygon style="fill-rule:evenodd;clip-rule:evenodd;fill:#E0D5BE;" points="335.2,154.4 335.2,154.4 337.4,155.2 339.5,155.4 
	341.4,155.6 343.1,155.4 344.8,154.9 346.3,154.2 347.7,153.3 349.1,152.3 350.2,151 351.4,149.7 353.7,146.6 358.5,139.9 
	368.3,128.3 355.2,137 353.3,138.8 351.8,140.4 350.5,142.2 349.3,143.9 345.9,149.6 345.1,150.8 344.2,151.8 343.3,152.6 
	342.7,153 342.1,153.4 341.5,153.7 340.8,153.9 339.2,154.3 337.3,154.4 "/>
<polygon style="fill-rule:evenodd;clip-rule:evenodd;fill:#E0D5BE;" points="359.8,128.6 363.8,128.6 368.3,128.3 364.1,127.4 
	360.4,126.4 357.2,125.3 354.3,124.1 349.3,121.9 347.1,120.9 345.1,120.1 342.8,119.4 341.7,119.3 338.2,119.3 335.6,119.7 
	332.7,120.6 329.5,122 325.7,123.9 321.6,126.3 321.6,126.4 325.5,125.4 328.9,124.6 332.1,124.2 334.7,124.1 337.1,124.3 
	339.4,124.6 343.7,125.6 348.1,126.9 350.6,127.4 353.3,128 356.4,128.4 "/>
<g>
	<defs>
		<rect id="SVGID_1_" width="391.3" height="401"/>
	</defs>
	<clipPath id="SVGID_2_">
		<use xlink:href="#SVGID_1_"  style="overflow:visible;"/>
	</clipPath>
	<path style="clip-path:url(#SVGID_2_);fill-rule:evenodd;clip-rule:evenodd;fill:#A8986F;" d="M47.8,104.8
		C37.9,79,40.2,75.1,69.9,73C40.8,81.3,43.2,77,47.8,104.8"/>
	<path style="clip-path:url(#SVGID_2_);fill-rule:evenodd;clip-rule:evenodd;fill:#A8986F;" d="M92.9,57.7
		c-4.8-14.3,0.3-24.4,15.5-27.2c6-1.1,11.3-0.3,16.2,3.2c-2-0.9-2-1.1-4.3-1.4C102.3,29.6,90.8,40.3,92.9,57.7"/>
	<path style="clip-path:url(#SVGID_2_);fill-rule:evenodd;clip-rule:evenodd;fill:#A8986F;" d="M150.6,25.1
		c3.1-13.1,12.3-21.2,25.7-16.2c5.4,2,8.6,6.6,7.9,12.4c-0.3-2.7-0.8-4.4-2.7-6.3C170.6,4.2,156.7,12.4,150.6,25.1"/>
	<path style="clip-path:url(#SVGID_2_);fill-rule:evenodd;clip-rule:evenodd;fill:#A8986F;" d="M222.6,16.4
		c4.9-10.2,30.2-13.2,28.8,11.5l-0.8-4C246.4,8.9,229.2,8.5,222.6,16.4"/>
	<path style="clip-path:url(#SVGID_2_);fill-rule:evenodd;clip-rule:evenodd;fill:#A8986F;" d="M281.1,35.6
		c10.7-1.8,25.9-1.4,26.4,13.2c0.1,2.3-2.3,11-4.3,10.8c0.7-0.1,1.3-2.3,1.4-2.5C309.2,39.5,294.9,36.6,281.1,35.6"/>
	<path style="clip-path:url(#SVGID_2_);fill-rule:evenodd;clip-rule:evenodd;fill:#A8986F;" d="M333.9,81.7
		c15.4-6.8,25.7-0.1,26.8,16c0.3,4.8-1.2,12.2-6.6,13.8C360.9,107.9,362.9,75.3,333.9,81.7"/>
	<path style="clip-path:url(#SVGID_2_);fill-rule:evenodd;clip-rule:evenodd;fill:#A8986F;" d="M39.2,291.9
		c-19.6-4.1-20.9-16.4-11.4-32.1l0.8-1.5C23.6,276,20.5,282.8,39.2,291.9"/>
	<path style="clip-path:url(#SVGID_2_);fill-rule:evenodd;clip-rule:evenodd;fill:#A8986F;" d="M85.3,336.1
		c-15.2,14.3-28.9,0.7-27.1-14.9l2.1-8.1C59.6,331,65.3,348.1,85.3,336.1"/>
	<path style="clip-path:url(#SVGID_2_);fill-rule:evenodd;clip-rule:evenodd;fill:#A8986F;" d="M17.1,163.3
		C4.5,145.4,11.4,130,31.5,123C14.5,133.3,9,144.3,17.1,163.3"/>
	<path style="clip-path:url(#SVGID_2_);fill-rule:evenodd;clip-rule:evenodd;fill:#A8986F;" d="M15.2,231.5
		c-6.3-7.6-14.1-17.9-9.7-28.8c1.8-4.3,5.1-6.3,8.7-8.7C1.7,207.2,7.8,216.2,15.2,231.5"/>
	<path style="clip-path:url(#SVGID_2_);fill-rule:evenodd;clip-rule:evenodd;fill:#E0D5BE;" d="M103.5,40.4c2,10.3,16.6,11.7,8.7,24
		C112,50.7,98.5,52.6,103.5,40.4"/>
	<path style="clip-path:url(#SVGID_2_);fill-rule:evenodd;clip-rule:evenodd;fill:#E0D5BE;" d="M167.8,17.4
		c1.2,11.8,17.5,4.8,8,18.9C175,21.7,159.9,30.5,167.8,17.4"/>
	<path style="clip-path:url(#SVGID_2_);fill-rule:evenodd;clip-rule:evenodd;fill:#E0D5BE;" d="M242.7,17.1c-5.6,5.6,4.3,9.3-3.4,18
		l-5.9,3.8l2.5-6.1C241,21.9,232.8,18.8,242.7,17.1"/>
	<path style="clip-path:url(#SVGID_2_);fill-rule:evenodd;clip-rule:evenodd;fill:#E0D5BE;" d="M298.4,43.3
		c-6.5,7.1,8.3,18.1-10.8,20.1C301.3,51.6,285.9,46.2,298.4,43.3"/>
	<path style="clip-path:url(#SVGID_2_);fill-rule:evenodd;clip-rule:evenodd;fill:#E0D5BE;" d="M350.3,93.6
		c-9.5,0.5-4.6,16.8-24.1,11.2l3.4-1C344.5,98.5,341.4,88.7,350.3,93.6"/>
	<path style="clip-path:url(#SVGID_2_);fill-rule:evenodd;clip-rule:evenodd;fill:#E0D5BE;" d="M20,143.1c9.8-6.3,7.3,2.2,21.1,7.7
		C25.7,155.1,32.1,144,20,143.1"/>
	<path style="clip-path:url(#SVGID_2_);fill-rule:evenodd;clip-rule:evenodd;fill:#E0D5BE;" d="M47.6,85.7
		c15.6-6,10.2,6.7,21.3,16.2C51.6,99.1,64.6,88.8,47.6,85.7"/>
	<path style="clip-path:url(#SVGID_2_);fill-rule:evenodd;clip-rule:evenodd;fill:#E0D5BE;" d="M13.3,213.1
		c9.2-9.1,11.4,1.1,19.9,1.5C25.8,220.8,26,212.5,13.3,213.1"/>
	<path style="clip-path:url(#SVGID_2_);fill-rule:evenodd;clip-rule:evenodd;fill:#E0D5BE;" d="M30.5,283.3
		c-3.8-12.2,15.4-4.8,17.4-10.6C51.3,282.2,33.3,276.1,30.5,283.3"/>
	<path style="clip-path:url(#SVGID_2_);fill-rule:evenodd;clip-rule:evenodd;fill:#E0D5BE;" d="M66.1,330.3
		c5.7-12.4,17.4-3.4,19.4-10.1C88.8,328.8,73.7,326.4,66.1,330.3"/>
	<path style="clip-path:url(#SVGID_2_);fill:#A8986F;" d="M147.2,333.6c-6.7-2.7-11.9-5.2-17.7-8.7c-22.5-13-38.3-28.8-51.2-51.3
		c-12.8-22.3-18.8-44.5-18.8-70.1c0-25.9,5.8-47.5,18.8-70.1c12.8-22.3,29.1-38.6,51.3-51.4c22.3-12.8,44.5-18.8,70.1-18.8
		c25.5,0,47.8,6,70.1,18.8c22.2,12.8,38.5,29.1,51.4,51.4c4.4,7.6,7.5,14.4,10.6,22.8l-1.8,0.7c-3-8.3-6.1-15-10.4-22.4
		c-12.6-21.9-28.7-38-50.6-50.6c-22-12.7-43.9-18.6-69.1-18.6c-25.2,0-47.1,5.9-69.1,18.6c-22.1,12.8-37.7,28.4-50.5,50.6
		c-12.8,22.3-18.6,43.6-18.6,69.1c0,25.2,5.9,47.1,18.6,69.1c12.8,22.2,28.4,37.8,50.5,50.5c5.8,3.4,10.8,5.8,17.5,8.5L147.2,333.6z
		"/>
	<path style="clip-path:url(#SVGID_2_);fill-rule:evenodd;clip-rule:evenodd;fill:#A8986F;" d="M113.8,321.8L113.8,321.8
		L113.8,321.8c1.1,0,2,0.2,2.9,0.7c0.9,0.6,1.6,1.2,2.1,2.1c0.6,1,0.8,1.8,0.8,2.9c0,1.1-0.2,1.9-0.8,2.9c-0.5,0.9-1.2,1.5-2.1,2.1
		c-0.9,0.5-1.8,0.7-2.8,0.7c-1.1,0-2-0.2-2.9-0.7c-0.9-0.6-1.6-1.2-2.1-2.1c-0.6-1-0.8-1.8-0.8-2.9c0-1.1,0.2-1.9,0.8-2.9
		c0.5-0.9,1.2-1.5,2.1-2.1C111.9,322,112.8,321.8,113.8,321.8"/>
	<path style="clip-path:url(#SVGID_2_);fill-rule:evenodd;clip-rule:evenodd;fill:#A8986F;" d="M69.3,286.5L69.3,286.5L69.3,286.5
		c1.1,0,2,0.2,2.9,0.8c0.9,0.5,1.6,1.2,2.1,2.1c0.6,0.9,0.8,1.8,0.8,2.8c0,1.1-0.2,2-0.8,2.9c-0.5,0.9-1.2,1.6-2.1,2.1
		c-0.9,0.5-1.8,0.8-2.8,0.8c-1.1,0-2-0.3-2.9-0.8c-0.9-0.5-1.6-1.2-2.1-2.1c-0.6-0.9-0.8-1.8-0.8-2.9c0-1,0.2-1.9,0.8-2.8
		c0.5-0.9,1.2-1.6,2.1-2.1C67.4,286.8,68.3,286.5,69.3,286.5"/>
	<path style="clip-path:url(#SVGID_2_);fill-rule:evenodd;clip-rule:evenodd;fill:#A8986F;" d="M44.2,232L44.2,232
		c1.1,0,2,0.3,2.9,0.8c0.9,0.5,1.6,1.2,2.1,2.1c0.5,0.9,0.8,1.8,0.8,2.9c0,1-0.3,1.9-0.8,2.9c-0.5,0.9-1.2,1.5-2.1,2.1
		c-0.9,0.5-1.8,0.7-2.9,0.7c-1,0-1.9-0.2-2.9-0.7c-0.9-0.6-1.5-1.2-2.1-2.1c-0.5-1-0.7-1.9-0.7-2.9c0-1.1,0.2-2,0.7-2.9
		c0.6-0.9,1.2-1.6,2.1-2.1S43.2,232,44.2,232"/>
	<path style="clip-path:url(#SVGID_2_);fill-rule:evenodd;clip-rule:evenodd;fill:#A8986F;" d="M42.1,178.7L42.1,178.7L42.1,178.7
		c1.1,0,2,0.2,2.9,0.8c0.9,0.5,1.6,1.1,2.1,2.1c0.6,0.9,0.8,1.8,0.8,2.8c0,1.1-0.2,2-0.8,2.9c-0.5,0.9-1.2,1.6-2.1,2.1
		c-0.9,0.5-1.8,0.8-2.8,0.8c-1.1,0-2-0.3-2.9-0.8c-0.9-0.5-1.6-1.2-2.1-2.1c-0.6-0.9-0.8-1.8-0.8-2.9c0-1,0.2-1.9,0.8-2.8
		c0.5-1,1.2-1.6,2.1-2.1C40.2,178.9,41.1,178.7,42.1,178.7"/>
	<path style="clip-path:url(#SVGID_2_);fill-rule:evenodd;clip-rule:evenodd;fill:#A8986F;" d="M62.3,126.9L62.3,126.9
		c1.1,0,1.9,0.2,2.9,0.7c0.9,0.6,1.5,1.2,2.1,2.1c0.5,1,0.7,1.9,0.7,2.9c0,1.1-0.2,2-0.7,2.9c-0.6,0.9-1.2,1.6-2.1,2.1
		c-1,0.5-1.8,0.8-2.9,0.8c-1.1,0-1.9-0.3-2.9-0.8c-0.9-0.5-1.5-1.2-2.1-2.1c-0.5-0.9-0.7-1.8-0.7-2.9c0-1,0.2-1.9,0.7-2.9
		c0.6-0.9,1.2-1.5,2.1-2.1C60.3,127.1,61.2,126.9,62.3,126.9"/>
	<path style="clip-path:url(#SVGID_2_);fill-rule:evenodd;clip-rule:evenodd;fill:#A8986F;" d="M94.9,82.9L94.9,82.9
		c1.1,0,1.9,0.3,2.9,0.8c0.9,0.5,1.5,1.2,2.1,2.1c0.5,0.9,0.7,1.8,0.7,2.9c0,1-0.2,1.9-0.7,2.9c-0.6,0.9-1.2,1.5-2.1,2.1
		c-1,0.5-1.8,0.7-2.9,0.7c-1.1,0-1.9-0.2-2.9-0.7c-0.9-0.6-1.5-1.2-2.1-2.1c-0.5-1-0.7-1.9-0.7-2.9c0-1.1,0.2-2,0.7-2.9
		c0.6-0.9,1.2-1.6,2.1-2.1S93.8,82.9,94.9,82.9"/>
	<path style="clip-path:url(#SVGID_2_);fill-rule:evenodd;clip-rule:evenodd;fill:#A8986F;" d="M148.7,54.9L148.7,54.9
		c1.1,0,1.9,0.2,2.9,0.7c0.9,0.6,1.5,1.2,2.1,2.1c0.5,1,0.7,1.9,0.7,2.9c0,1.1-0.2,2-0.7,2.9c-0.6,0.9-1.2,1.6-2.1,2.1
		c-1,0.5-1.8,0.8-2.9,0.8c-1.1,0-1.9-0.3-2.9-0.8c-0.9-0.5-1.5-1.2-2.1-2.1c-0.5-0.9-0.7-1.8-0.7-2.9c0-1,0.2-1.9,0.7-2.9
		c0.6-0.9,1.2-1.5,2.1-2.1C146.7,55.1,147.6,54.9,148.7,54.9"/>
	<path style="clip-path:url(#SVGID_2_);fill-rule:evenodd;clip-rule:evenodd;fill:#A8986F;" d="M253.3,53.9L253.3,53.9
		c1.1,0,2,0.2,2.9,0.8c0.9,0.5,1.6,1.2,2.1,2.1c0.5,0.9,0.8,1.8,0.8,2.8c0,1.1-0.3,2-0.8,2.9s-1.2,1.6-2.1,2.1
		c-0.9,0.6-1.8,0.8-2.9,0.8c-1,0-1.9-0.2-2.9-0.8c-0.9-0.5-1.5-1.2-2-2.1c-0.6-0.9-0.8-1.8-0.8-2.9c0-1,0.2-1.9,0.8-2.8
		c0.5-0.9,1.1-1.6,2-2.1C251.4,54.2,252.3,53.9,253.3,53.9"/>
	<path style="clip-path:url(#SVGID_2_);fill-rule:evenodd;clip-rule:evenodd;fill:#A8986F;" d="M205.4,37.4L205.4,37.4
		c1.1,0,1.9,0.3,2.9,0.8c0.9,0.5,1.5,1.2,2.1,2.1c0.5,0.9,0.7,1.8,0.7,2.9c0,1-0.2,1.9-0.7,2.9c-0.6,0.9-1.2,1.5-2.1,2.1
		c-1,0.5-1.8,0.7-2.9,0.7c-1.1,0-1.9-0.2-2.9-0.7c-0.9-0.6-1.5-1.2-2.1-2.1c-0.5-1-0.7-1.9-0.7-2.9c0-1.1,0.2-2,0.7-2.9
		c0.6-0.9,1.2-1.6,2.1-2.1C203.4,37.7,204.3,37.4,205.4,37.4"/>
	<path style="clip-path:url(#SVGID_2_);fill-rule:evenodd;clip-rule:evenodd;fill:#A8986F;" d="M303.2,83.7L303.2,83.7h0.1
		c1,0,1.9,0.2,2.8,0.7c0.9,0.6,1.6,1.2,2.1,2.1c0.6,1,0.8,1.9,0.8,2.9c0,1.1-0.2,2-0.8,2.9c-0.5,0.9-1.2,1.6-2.1,2.1
		s-1.8,0.8-2.8,0.8c-1.1,0-2-0.3-2.9-0.8c-0.9-0.5-1.6-1.2-2.1-2.1c-0.6-0.9-0.8-1.8-0.8-2.9c0-1,0.2-1.9,0.8-2.9
		c0.5-0.9,1.2-1.5,2.1-2.1C301.3,83.9,302.2,83.7,303.2,83.7"/>
	<path style="clip-path:url(#SVGID_2_);fill-rule:evenodd;clip-rule:evenodd;fill:#A8986F;" d="M346.7,129.1L346.7,129.1h0.1
		c1,0,1.9,0.3,2.8,0.8c0.9,0.5,1.6,1.2,2.1,2.1c0.6,0.9,0.8,1.8,0.8,2.9c0,1-0.2,1.9-0.8,2.9c-0.5,0.9-1.2,1.5-2.1,2.1
		c-0.9,0.5-1.8,0.7-2.8,0.7c-1.1,0-2-0.2-2.9-0.7c-0.9-0.6-1.6-1.2-2.1-2.1c-0.6-1-0.8-1.9-0.8-2.9c0-1.1,0.2-2,0.8-2.9
		c0.5-0.9,1.2-1.6,2.1-2.1C344.8,129.4,345.7,129.1,346.7,129.1"/>
	<path style="clip-path:url(#SVGID_2_);fill-rule:evenodd;clip-rule:evenodd;fill:#A8986F;" d="M387.5,209.4
		c-5.7-14.9-17.6-24.7-35.4-29.3c-44.3-11.2-69.6,12.1-95.8,41.2l-15.5,15c-4.1,1.8-9.3,2.3-14.4,2.8c-1.2,0.1-2.5,0.2-3.7,0.4
		c-1.8,0.2-5.9,0.5-10.9,0.7v-2.3l7.5-0.2l-7-9.1c3.8-2.6,6.1-7,6.1-11.6v-15.6c0-4.8-2.5-9.3-6.5-11.9v-21.6
		c10.4-2.2,17.6-8.8,17.6-16.2c0-7.5-7-14-17.6-16.3v-17.3h6.5v-36h0.3l0.1,0c4-0.6,24.3-3.9,27.8-7.4l0.3-0.3V72h-35V56.3
		c0-3-2.4-5.5-5.5-5.5h-4.8c-3.1,0-5.6,2.5-5.6,5.5V72h-34.9v1.3l0,0.2c0.8,3.8,19.6,7.1,28.5,8.5v36.1h5.6v17.5
		c-10,2.4-16.6,8.8-16.6,16.1c0,7.2,6.6,13.6,16.6,16.1V190c-3.6,2.8-5.6,6.9-5.6,11.4V217c0,4.3,1.9,8.3,5.3,11.1l-7,10.2l7.4-0.1
		v2.4c-4.3,0.1-8.6,0-12.8-0.1c-10.8-0.4-31.4-26.4-40.7-40.1l-0.5-0.7l-0.8,0.4c-1.1,0.6-10.6,5.7-10.7,10.9c0,1.8,1.1,3.4,3.2,4.6
		c12.3,6.9,28.1,29.1,31.3,44.1v0c0.5,2.3,1,4.2,1.5,5.8c2.5,8.7,3.6,12.6-4.3,62.5c-2.9,18.2-13.4,31.7-20.3,40.7
		c-4,5.1-6.6,8.5-6.4,11c0.5,5.5,12.6,5.3,36.6,5.1c8.7-0.1,18.6-0.2,29.7-0.1c5.8,0.1,11.2,0.2,16.3,0.2
		c28.5,0.5,44.2,0.7,48.4-3.4c0.8-0.8,1.2-1.7,1.2-2.8c0-2.8-2.1-5.4-5.1-9c-5.8-7-14.5-17.5-17-39.9c-4.5-42.4-4.5-61.5-0.1-70.4
		c4.5-9.1,12.8-22.8,12.8-22.9c20.2-28.9,41.9-45.4,64.4-49.2c21.4-3.6,37.7,5.4,45.6,11c10.8,7.8,16.3,21.1,15.9,38.3
		c-0.4,16.7-6.2,36-16.8,55.7c-56.3,105-87.2,103.5-169.9,99.6c-20.2-1-43.1-2.1-70.2-1.8c-0.3,0-20.6,1.9-39.4,3.9
		c-39.6,4.1-40,4.7-40.3,5.4l-0.3,0.5l0.3,0.5c0.3,0.5,0.5,0.6,3,0.6c0.5,0,1.1,0,1.8,0c47.1-1.1,82.9-1.4,119.8-1
		c14.7,0.2,31.1,0.1,62.2-0.2C308,399,335.2,358.5,357.1,326l1-1.5C374.3,300.5,401.2,245.6,387.5,209.4"/>
	
		<line style="clip-path:url(#SVGID_2_);fill:none;stroke:#97CADD;stroke-width:0.481;stroke-miterlimit:10;" x1="245.9" y1="73.9" x2="245.9" y2="73.1"/>
	
		<line style="clip-path:url(#SVGID_2_);fill:none;stroke:#97CADD;stroke-width:0.481;stroke-miterlimit:10;" x1="244.7" y1="72.9" x2="243.9" y2="72.9"/>
	
		<line style="clip-path:url(#SVGID_2_);fill:none;stroke:#97CADD;stroke-width:0.481;stroke-miterlimit:10;" x1="242.5" y1="72.9" x2="241.7" y2="72.9"/>
	
		<line style="clip-path:url(#SVGID_2_);fill:none;stroke:#97CADD;stroke-width:0.481;stroke-miterlimit:10;" x1="240.2" y1="72.9" x2="239.5" y2="72.9"/>
	
		<line style="clip-path:url(#SVGID_2_);fill:none;stroke:#97CADD;stroke-width:0.481;stroke-miterlimit:10;" x1="235.8" y1="72.9" x2="235.1" y2="72.9"/>
	
		<line style="clip-path:url(#SVGID_2_);fill:none;stroke:#97CADD;stroke-width:0.481;stroke-miterlimit:10;" x1="211" y1="66.8" x2="211" y2="66.1"/>
	
		<line style="clip-path:url(#SVGID_2_);fill:none;stroke:#97CADD;stroke-width:0.481;stroke-miterlimit:10;" x1="211" y1="64.6" x2="211" y2="63.9"/>
	
		<line style="clip-path:url(#SVGID_2_);fill:none;stroke:#97CADD;stroke-width:0.481;stroke-miterlimit:10;" x1="211" y1="62.4" x2="211" y2="61.7"/>
	
		<line style="clip-path:url(#SVGID_2_);fill:none;stroke:#97CADD;stroke-width:0.481;stroke-miterlimit:10;" x1="197.1" y1="62.1" x2="197.1" y2="62.8"/>
	
		<line style="clip-path:url(#SVGID_2_);fill:none;stroke:#97CADD;stroke-width:0.481;stroke-miterlimit:10;" x1="197.1" y1="64.3" x2="197.1" y2="65.1"/>
	<path style="clip-path:url(#SVGID_2_);fill-rule:evenodd;clip-rule:evenodd;fill:#27231A;" d="M130.9,210.7v1.1l0.2,0.6l0.2,0.6
		l0.4,0.4l0.5,0.6l0.6,0.4l0.8,0.6l1.5,0.9l1.5,1.1l3.2,2.4l3.1,3l3.2,3.3l3,3.6l3,3.9l2.7,4l2.6,4l1.3-0.2l1.4-0.3l1.3-0.3l1.3-0.4
		v0.4v0.6l-0.1,0.6v0.5l0.2,3l0.4,3l0.7,2.8l0.9,2.8l1.1,2.6l1.3,2.4l1.6,2.3l1.7,2.1l1.9,2l2.1,1.7l2.2,1.5l2.4,1.1l2.4,1l2.6,0.9
		l2.7,0.4l2.7,0.2l1.7-0.1l1.6-0.2l1.6-0.2l1.7-0.4l1.4-0.6l1.6-0.4l1.4-0.7l1.4-0.9l1.4-0.7l1.3-0.9l1.2-1l1.3-1.1l1.1-1.1l1-1.3
		l1.1-1.3l0.9-1.3l0.5,1.6l0.6,1.7l0.8,1.4l1,1.6l1,1.4l1.2,1.3l1.3,1.3l1.5,1.1l1.6,1l1.7,0.9l1.8,0.8l1.9,0.6l2,0.6l2,0.4l2,0.2
		l2.2,0.1l1.8-0.1l1.5-0.2l1.6-0.1l1.6-0.4l0.3-2.6l0.1-2.3l0.3-2.3l0.4-2l0.4-1.8l0.5-1.7l0.6-1.6l0.7-1.4l4-7.4l4.1-7.5l4.7-8.1
		l8.8-11.8l8.7-9.7l8.7-8.3l8.3-6.6l8.2-5.2l8.1-3.9l7.7-2.7l7.5-1.6l7.2-0.6l6.7,0.2l6.4,0.8l6,1.5l5.5,2l5.1,2.3l4.5,2.6l4,2.6
		l2.3,1.9l2.1,1.9l1.9,2.1l1.8,2.3l1.7,2.4l1.2,2.5l1.3,2.7l1,2.8l1.7-0.5l1.6-0.5l3.2-1.1l-1-2.9l-1-2.7l-1.3-2.7l-1.4-2.6
		l-1.6-2.5l-1.7-2.5l-1.9-2.2l-2.1-2.2l-2.3-2l-2.6-1.9l-2.7-1.8l-2.9-1.7l-3.1-1.5l-3.4-1.4l-3.5-1.3l-3.8-1l-8-1.7l-7.5-0.9
		l-7.2-0.2l-6.8,0.4l-6.4,1.1l-6.2,1.6l-5.9,2.2l-5.6,2.7l-5.4,3.1l-5.2,3.4l-5,3.9l-4.8,4.1l-9.4,8.9l-9,9.6l-3.1,3.4l-15,14.4
		l-1,0.5l-1.1,0.4l-2.1,0.6l-2.3,0.5l-2.4,0.4l-9.6,1l-2.4,0.2l-4,0.3l-5.5,0.1v-4.1l5.2-0.1l0.7,0l0.8-0.1l-2-2.2l-4.7-6.1l0.5-0.4
		l0.5-0.3l0.5-0.4c0,0-0.1,0.3,0.5-0.4c2.6-2.9,4.4-4.7,4.4-12.9v-12.7v-0.9l-0.1-0.9l-0.1-0.9l-0.2-0.8l-0.3-0.8l-0.3-0.8l-0.2-0.8
		l-0.5-0.8l-0.5-0.7l-0.5-0.7l-0.5-0.6l-0.6-0.6l-0.6-0.6l-0.6-0.6l-0.7-0.5l-0.7-0.4v-2.6l-0.1-22.5l1.7-0.2l1.6-0.2l1.7-0.4
		l1.5-0.3l1.6-0.5l1.5-0.5l1.5-0.7l1.4-0.6l1.1-1l1-1.1l0.9-1.3l0.4-0.5l0.4-0.6l0.2-0.6l0.3-0.7l0.2-0.6l0.3-0.7l0.1-0.7l0.1-0.6
		v-0.7l0.1-0.7l-0.1-1.4l-0.2-1.3l-0.5-1.3l-0.5-1.2l-0.7-1.4l-0.9-1l-1-1.1l-1.1-1l-1.2-1l-1.3-0.9l-1.5-1l-1.5-0.7l-1.6-0.6
		l-1.8-0.7l-1.7-0.4l-1.9-0.6v-19h6.4v-36h1.3l8.5-1.4l6-1.2l5.6-1.4l3.8-1.6l2-0.7l1.4-1.2v-0.8l-35,0.2V56.6v-0.3v-0.2v-0.3
		l-0.1-0.2l-0.1-0.3v-0.2l-0.1-0.3l-0.1-0.2l-2.1-0.4l-2.2-0.2l-2.1-0.2h-2.2l-3.8,0.1l-0.3,0.3l-0.2,0.2l-0.2,0.4l-0.1,0.4
		l-0.1,0.2l-0.1,0.5v0.4v0.3v16.7L162.2,73l0,0.5l0.8,1.2l2.5,1.2l3.3,1.1l3.9,1.1l8.3,1.7l6.7,1.3l2.8,0.3v36h5.6v19.3l-1.8,0.5
		l-1.7,0.5l-1.6,0.6l-1.5,0.7l-1.5,0.8l-1.4,0.8l-1.2,0.8l-1.2,1l-1.1,1l-0.9,1.2l-0.8,1.1l-0.7,1.2l-0.5,1.2l-0.4,1.3l-0.2,1.2
		l-0.1,1.4l0.1,1.3l0.2,1.3l0.4,1.2l0.5,1.3l0.7,1.1l0.8,1.1l0.9,1.1l1.1,1l1.2,1l1.2,0.9l1.4,0.9l1.5,0.8l1.5,0.6l1.6,0.7l1.7,0.5
		l1.8,0.5v23.5l-0.6,0.5l-0.5,0.5l-0.6,0.6l-0.6,0.5l-0.4,0.5l-0.4,0.8l-0.5,0.6l-0.4,0.6l-0.4,0.8l-0.3,0.7l-0.2,0.8l-0.2,0.7
		l-0.2,0.8l-0.1,0.8l-0.1,0.8l-0.1,0.9v15.6l0.1,0.8l0.1,0.9l0.1,0.8l0.2,0.8l0.2,0.7l0.2,0.8l0.3,0.7l0.4,0.6l0.4,0.8l0.5,0.7
		l0.4,0.5l0.4,0.7l0.6,0.6l0.6,0.5l0.5,0.5l0.6,0.5l-6.5,9.4l6.5-0.2v4.5l-13.7-0.2l-1.2-0.1l-1.2-0.3l-1.3-0.5l-1.4-0.5l-2.7-1.6
		l-2.9-2.1l-3-2.4l-3-2.8l-6.1-6.3l-5.8-6.7l-5.2-6.6l-7.6-10.6l-0.8,0.4l-1.8,1.1l-2.3,1.5l-1.1,1l-1.3,1l-1,1.1l-0.9,1.1l-0.4,0.6
		l-0.2,0.4l-0.2,0.7L130.9,210.7z"/>
</g>
</svg>
