<svg version="1" xmlns="http://www.w3.org/2000/svg" width="933.333" height="933.333" viewBox="0 0 700.000000 700.000000"><path d="M344 48.4c0 .3 1.8 3.4 4.1 6.8 8.3 12.8 14.6 28.4 17.4 43.2 1.9 10 1.9 29.9 0 40.9-3.4 19.3-13.1 42.4-27.2 64.2-17.1 26.6-23.3 45.6-23.3 71 0 6.7.7 16.2 1.5 21.1 6 34.1 28.7 72.1 65.7 109.9 13.7 13.9 17.9 16.9 9.2 6.5-21.7-26.1-31.5-53.7-30.1-85.2.6-14.5 2.4-24.1 7.7-39.8 5.2-15.8 11.1-28.2 23.1-48.2 15.4-25.6 22.5-44 24.9-64.3 5.1-42.7-16.7-83.1-64.8-120.3-4.5-3.5-8.2-6.1-8.2-5.8zM294 173.3c-.8.8-7.3 4.9-14.5 9.2-65.2 39.2-100.3 78.3-110.2 122.9-2.4 10.7-2.2 31.7.5 43.6 5.4 24.6 15.2 43.8 38.2 74.5 7 9.3 15.3 21 18.5 26 12.3 19.4 21.8 42.9 25.1 61.5 2.2 12.9 1.5 36.2-1.4 47.2-8.2 30.3-27.5 57.1-60.3 83.4-6.4 5.1-11.9 10-12.3 10.9-.8 2.1.9 6.1 2.9 6.9 2.6 1 30.6-19.1 59-42.3 16.7-13.7 47.7-44.6 58.2-58.2 39.5-51 48.3-97.7 26.8-142.4-5.6-11.7-11.8-21.1-24.5-36.9-25.4-31.7-39.7-59.1-45.7-87.6-2.3-11.2-2.3-35.3.1-45.8 5.6-25.1 18.7-48.9 38-69 2.8-2.8 4.6-5.2 4-5.2-.5 0-1.6.6-2.4 1.3zM482.3 215.4c-25.6 20.2-41.8 38.8-52.3 59.6-8.1 16.2-11.2 29.3-11.2 47.5-.1 25.1 6.3 44.4 25.2 76 9.6 16.2 15.5 28.3 19.8 41 5.4 15.8 6.7 24.3 6.6 42-.1 14-.4 17.3-2.7 26-5.3 19.9-17.7 40.2-35.2 57.9-6.3 6.3-8.5 9.2-8.3 10.8.2 1.2.8 2.3 1.4 2.5 2.6.9 40.9-36.6 53.8-52.7 32.1-40.3 45.3-78.8 39.1-114.1-2.8-16.4-7.7-27.8-20.5-48.4-20.6-33-29-57.9-29-85.8 0-21.9 7.1-44.5 20-64 2.1-3.1 3.5-5.7 3.2-5.7-.4.1-4.8 3.3-9.9 7.4z"/></svg>